# xmcd
#
# Track frame offsets: 
#        150
#        19305
#        38472
#        56690
#        75207
#        93571
#        112914
#        130625
#        150048
#        169716
#        188733
#
# Disc length: 2791 seconds
#
# Revision: 0
# Processed by: cddbd v1.5.2PL0 Copyright (c) Steve Scherf et al.
# Submitted via: ExactAudioCopy v0.90b4
#
DISCID=6e0ae50b
DTITLE=Alex Bueno - Queda Algo
DYEAR=2007
DGENRE=Latin
TTITLE0=A Buscar Que
TTITLE1=Quién Lo Haría Por Ti
TTITLE2=Queda Algo (f. Miriam Cruz)
TTITLE3=Samaritana
TTITLE4=Esa Triste Guitarra
TTITLE5=Si Yo Pudiera
TTITLE6=Nuestro Amor
TTITLE7=Olvidame Tu
TTITLE8=Dime Que Sientes
TTITLE9=Una Mañana
TTITLE10=Y Yo En Mi Rincon
EXTD=
EXTT0=
EXTT1=
EXTT2=
EXTT3=
EXTT4=
EXTT5=
EXTT6=
EXTT7=
EXTT8=
EXTT9=
EXTT10=
PLAYORDER=
